<?xml version="1.0" encoding="utf-8"?>
<!-- Svg Vector Icons : http://www.onlinewebfonts.com/icon -->
<!DOCTYPE svg PUBLIC "-//W3C//DTD SVG 1.1//EN" "http://www.w3.org/Graphics/SVG/1.1/DTD/svg11.dtd">
<svg version="1.1" xmlns="http://www.w3.org/2000/svg" xmlns:xlink="http://www.w3.org/1999/xlink" x="0px" y="0px" viewBox="0 0 1000 1000" enable-background="new 0 0 1000 1000" xml:space="preserve">
<metadata> Svg Vector Icons : http://www.onlinewebfonts.com/icon </metadata>
<g><path d="M768,635.4c-51.8,28.6-151.7,48.3-268,48.3c-116.2,0-216.2-19.7-268-48.3c-66.3-26.8-115.7-62.9-140.8-104.8c-11.7,19.6-19.9,39.8-19.9,61.3c0,118.3,192,214.4,428.7,214.4c236.8,0,428.8-96.1,428.8-214.4c0-21.5-8.3-41.7-20-61.3C883.7,572.5,834.4,608.6,768,635.4L768,635.4z M768,451.6C716.2,480.3,616.3,500,500,500c-116.2,0-216.2-19.7-268-48.4c-66.3-26.8-115.7-62.9-140.8-104.8c-11.7,19.6-19.9,39.8-19.9,61.3c0,118.4,192,214.4,428.7,214.4c236.8,0,428.8-96.1,428.8-214.4c0-21.5-8.3-41.7-20-61.3C883.7,388.7,834.4,424.9,768,451.6L768,451.6z M196.8,375.9c77.6,38.8,184.8,62.9,303.2,62.9s225.6-24,303.2-62.8c38.8-19.4,70.2-42.5,91.9-68.1c21.7-25.6,33.7-53.9,33.7-83.4c0-11.7-2.7-23-6.9-34.1C889.1,88.1,713.4,10,500,10c-213.4,0-389,78.1-421.9,180.2c-4.1,11.1-6.9,22.4-6.9,34.1c0,29.6,12,57.8,33.7,83.4C126.6,333.4,158,356.6,196.8,375.9L196.8,375.9z M768,819.2c-51.8,28.6-151.7,48.3-268,48.3c-116.2,0-216.2-19.7-268-48.3c-66.3-26.8-115.7-63-140.8-104.8c-11.7,19.5-19.9,39.7-19.9,61.3C71.3,893.9,263.2,990,500,990c236.8,0,428.8-96.1,428.8-214.4c0-21.6-8.3-41.7-20-61.2C883.7,756.2,834.4,792.4,768,819.2L768,819.2z"/></g>
</svg>